<svg xmlns="http://www.w3.org/2000/svg" xmlns:xlink="http://www.w3.org/1999/xlink" version="1.1" width="64" height="16" enable-background="new 0 0 64 16" xml:space="preserve"><rect id="backgroundrect" width="100%" height="100%" x="0" y="0" fill="none" stroke="none"/>




<g class="currentLayer" style=""><title>Layer 1</title><g id="svg_1" class="selected" fill="#6d6d6d" fill-opacity="1">
	<polygon fill="#6d6d6d" points="8,12.6000004 0.3,4.9000001 1.7,3.4000001 8,9.6999998 14.3000002,3.4000001 15.6999998,4.9000001     " id="svg_2" fill-opacity="1"/>
</g><g id="svg_3">
	<path fill="#6C7079" d="M31,3 H24.3999996 L21.6999998,0.30000000000000004 C21.5,0.1 21.3000002,0 21,0 H17 C16.4,0 16,0.4 16,1 v14 c0,0.6000004000000001 0.4,1 1,1 h14 c0.6000004000000001,0 1,-0.39999960000000007 1,-1 V4 C32,3.4000001 31.6000004,3 31,3 z" id="svg_4"/>
</g><g id="svg_5">
	<path fill="#6C7079" d="M47.8000002,7.4000001 C47.6000004,7.1999998000000005 47.3000002,7 47,7 H36 C35.5999999,7 35.2,7.1999998000000005 35.0999999,7.5999999 l-3,7.0000005 C31.9,15.1999998 32.1,16 33,16 h11 c0.39999960000000007,0 0.8000002,-0.19999980000000006 0.8999996000000002,-0.6000004000000001 l3,-7 C48.1000004,8.1000004 48,7.6999998000000005 47.8000002,7.4000001 z" id="svg_6"/>
	<path fill="#6C7079" d="M33.2,6.8000002 C33.7,5.6999998000000005 34.8,5 36,5 h9 V3 c0,-0.5999999000000001 -0.39999960000000007,-1 -1,-1 H38.4000001 L36.6999998,0.30000000000000004 C36.5,0.1 36.3000002,0 36,0 H33 C32.4,0 32,0.4 32,1 v8.6999998 L33.2,6.8000002 z" id="svg_7"/>
</g><g id="svg_8">
	<path fill="#6C7079" d="M63,0 H49 C48.4,0 48,0.4 48,1 v14 c0,0.6000004000000001 0.4,1 1,1 h14 c0.6000004000000001,0 1,-0.39999960000000007 1,-1 V1 C64,0.4 63.6000004,0 63,0 zM54,4 c0.5999999000000001,0 1,0.4000001 1,1 S54.5999999,6 54,6 S53,5.5999999 53,5 S53.4000001,4 54,4 zM51,12 l2,-4 l2,2 l3,-4 l3,6 H51 z" id="svg_9"/>
</g></g></svg>